<svg width="12" height="12" viewBox="0 0 12 12" fill="none" xmlns="http://www.w3.org/2000/svg">
<path d="M9.03876 5.58504L9.03877 5.58505C9.12789 5.67417 9.24876 5.72423 9.37479 5.72423C9.50082 5.72423 9.6217 5.67417 9.71081 5.58505C9.79993 5.49593 9.85 5.37506 9.85 5.24902C9.85 5.12299 9.79993 5.00212 9.71081 4.913L6.33585 1.53804C6.33584 1.53803 6.33583 1.53801 6.33581 1.538C6.29171 1.49386 6.23933 1.45883 6.18169 1.43494C6.12402 1.41103 6.06221 1.39873 5.99979 1.39873C5.93737 1.39873 5.87556 1.41103 5.81789 1.43494C5.76025 1.45883 5.70787 1.49386 5.66377 1.538C5.66375 1.53801 5.66374 1.53803 5.66373 1.53804L2.28877 4.913C2.19965 5.00212 2.14958 5.12299 2.14958 5.24902C2.14958 5.37506 2.19965 5.49593 2.28877 5.58505C2.37789 5.67417 2.49876 5.72423 2.62479 5.72423C2.75082 5.72423 2.8717 5.67417 2.96081 5.58505L2.96082 5.58504L5.52479 3.02063L5.52479 10.124C5.52479 10.25 5.57484 10.3708 5.66392 10.4599C5.753 10.549 5.87381 10.599 5.99979 10.599C6.12577 10.599 6.24659 10.549 6.33567 10.4599C6.42475 10.3708 6.47479 10.25 6.47479 10.124L6.47479 3.02063L9.03876 5.58504Z" fill="#2EA52E" stroke="#2EA52E" stroke-width="0.2"/>
</svg>
