<svg width="24" height="24" viewBox="0 0 24 24" fill="none" xmlns="http://www.w3.org/2000/svg">
<g clip-path="url(#clip0_2014_11743)">
<path d="M21.5934 13.2244C21.3144 13.0097 20.9895 12.8622 20.6442 12.7934C20.2988 12.7246 19.9422 12.7364 19.6022 12.8278L15.6797 13.7297C15.7709 13.3442 15.7738 12.943 15.6879 12.5563C15.6021 12.1695 15.4298 11.8072 15.1841 11.4965C14.9383 11.1858 14.6254 10.9347 14.2688 10.7622C13.9122 10.5896 13.5212 10.5 13.125 10.5H8.43188C8.03775 10.499 7.64733 10.5761 7.28319 10.7269C6.91904 10.8777 6.58838 11.0991 6.31031 11.3784L4.18969 13.5H1.5C1.10218 13.5 0.720644 13.658 0.43934 13.9393C0.158035 14.2207 0 14.6022 0 15L0 18.75C0 19.1478 0.158035 19.5294 0.43934 19.8107C0.720644 20.092 1.10218 20.25 1.5 20.25H11.25C11.3113 20.25 11.3724 20.2425 11.4319 20.2275L17.4319 18.7275C17.4704 18.7183 17.508 18.7057 17.5444 18.69L21.1875 17.1394L21.2288 17.1206C21.579 16.9456 21.8789 16.6844 22.1002 16.3614C22.3215 16.0385 22.457 15.6645 22.4939 15.2747C22.5307 14.8849 22.4678 14.4922 22.3109 14.1335C22.154 13.7748 21.9084 13.4619 21.5972 13.2244H21.5934ZM3.75 18.75H1.5V15H3.75V18.75ZM20.5716 15.7697L17.0091 17.2866L11.1562 18.75H5.25V14.5603L7.37156 12.4397C7.51035 12.2998 7.67555 12.1889 7.85758 12.1134C8.0396 12.0379 8.23482 11.9994 8.43188 12H13.125C13.4234 12 13.7095 12.1185 13.9205 12.3295C14.1315 12.5405 14.25 12.8266 14.25 13.125C14.25 13.4234 14.1315 13.7095 13.9205 13.9205C13.7095 14.1315 13.4234 14.25 13.125 14.25H10.5C10.3011 14.25 10.1103 14.329 9.96967 14.4697C9.82902 14.6103 9.75 14.8011 9.75 15C9.75 15.1989 9.82902 15.3897 9.96967 15.5303C10.1103 15.671 10.3011 15.75 10.5 15.75H13.5C13.5565 15.7498 13.6127 15.7436 13.6678 15.7313L19.9491 14.2866L19.9781 14.2791C20.1699 14.2258 20.3745 14.2454 20.5527 14.334C20.7309 14.4226 20.87 14.5739 20.9433 14.7589C21.0167 14.944 21.0189 15.1495 20.9498 15.3361C20.8806 15.5227 20.7449 15.6771 20.5687 15.7697H20.5716Z" fill="#A2195E"/>
</g>
<defs>
<clipPath id="clip0_2014_11743">
<rect width="24" height="24" fill="white"/>
</clipPath>
</defs>
</svg>
