<svg width="199" height="47" viewBox="0 0 199 47" fill="none" xmlns="http://www.w3.org/2000/svg">
<rect width="45.4338" height="46.0163" rx="8.15478" fill="url(#paint0_linear_840_10200)"/>
<g clip-path="url(#clip0_840_10200)">
<path d="M11.2832 35.24C11.6715 34.5604 12.5647 33.143 13.0307 32.91C13.495 32.6779 17.2907 33.1859 20.5817 32.9591C22.1546 32.8507 23.6349 32.218 24.8563 31.221C25.7383 30.501 26.7058 29.6009 27.49 28.6229C27.9709 28.0233 28.0404 27.1031 27.2733 27.1509C26.542 27.1964 25.2853 27.6202 23.2241 28.8326C22.1562 29.221 19.3797 29.8229 16.8168 29.1239C16.1187 28.9494 15.9697 28.4768 19.3309 27.0293C20.1097 26.6939 20.5469 25.8265 19.7293 25.6014C18.7554 25.3333 16.8355 25.4216 13.3219 26.5027C5.7496 28.8326 7.78829 33.2013 11.2832 35.24Z" fill="white"/>
<path d="M32.2529 13.3971C31.7869 12.6981 26.6222 13.1058 24.0981 13.3971L25.8453 17.4742C27.0772 17.2278 28.0378 17.1877 28.727 17.2333C29.5189 17.2857 30.1599 17.8551 30.3305 18.6303C30.7635 20.5982 29.1713 20.8439 28.1752 20.6779C27.8925 20.593 27.4879 20.4884 27.0103 20.3885C26.4129 20.2636 25.7014 20.146 24.9716 20.0836C24.2816 20.0247 23.5751 20.0151 22.9332 20.0954C21.866 20.2288 21.3487 20.7287 21.1854 21.2315C20.9922 21.8265 21.2947 22.4253 21.7682 22.4253C22.5519 22.4253 24.7417 22.4253 26.866 23.4763C27.11 23.597 27.353 23.7315 27.593 23.8815C27.7802 23.9985 27.975 24.108 28.1752 24.2101C30.4677 25.3789 33.4881 25.5822 34.2916 25.0465C34.9906 24.5805 37.8836 24.6582 39.2427 24.7552C39.534 22.7165 39.8835 18.5809 38.9515 18.3479C37.7865 18.0567 32.8354 14.2708 32.2529 13.3971Z" fill="white"/>
<path d="M21.1854 21.2315C21.3487 20.7287 21.866 20.2288 22.9332 20.0954C23.5751 20.0151 24.2816 20.0247 24.9716 20.0836C25.2628 15.1443 18.273 17.1829 21.1854 21.2315Z" fill="#589B63"/>
<path d="M15.9431 13.688L16.9841 16.018C17.5108 15.6634 18.506 14.4782 18.273 12.5737L15.9431 13.688Z" fill="#589B63"/>
<path d="M23.6864 12.5737L22.6416 10.4844L20.6029 11.4594C21.5349 12.7054 23.0469 12.7215 23.6864 12.5737Z" fill="#589B63"/>
<path d="M21.4085 25.9202L22.0592 27.3764L24.0979 26.321C23.1659 25.7096 21.9166 25.7991 21.4085 25.9202Z" fill="#589B63"/>
<path d="M28.1752 24.2101C27.975 24.108 27.7802 23.9985 27.593 23.8815C27.353 23.7315 27.11 23.597 26.866 23.4763C26.817 23.7471 26.7773 24.3936 27.0103 24.8132L28.1752 24.2101Z" fill="#589B63"/>
<path d="M25.8453 17.4742L24.0981 13.3971L23.6864 12.5737C23.0469 12.7215 21.5349 12.7054 20.6029 11.4594L18.273 12.5737C18.506 14.4782 17.5108 15.6634 16.9841 16.018L21.4085 25.9202C21.9166 25.7991 23.1659 25.7096 24.0979 26.321L27.0103 24.8132C26.7773 24.3936 26.817 23.7471 26.866 23.4763C24.7417 22.4253 22.5519 22.4253 21.7682 22.4253C21.2947 22.4253 20.9922 21.8265 21.1854 21.2315C18.273 17.1829 25.2628 15.1443 24.9716 20.0836C25.7014 20.146 26.4129 20.2636 27.0103 20.3885L25.8453 17.4742Z" fill="#B6D48A"/>
</g>
<rect x="6.22422" y="6.22422" width="32.9841" height="33.5666" rx="16.4921" stroke="#CBCBCB" stroke-width="0.8"/>
<path d="M71.085 31.5382C65.7844 31.5382 62.2254 28.1117 62.2254 23.0572C62.2254 18.0027 65.7844 14.5762 71.085 14.5762C74.8333 14.5762 78.6763 16.2232 79.282 21.3724H74.7387C74.2275 19.5361 72.8835 18.6842 71.085 18.6842C68.7566 18.6842 66.9392 20.4258 66.9392 23.0572C66.9392 25.6696 68.7566 27.4302 71.085 27.4302C72.8835 27.4302 74.2275 26.5783 74.7387 24.7042H79.282C78.6763 29.8912 74.8712 31.5382 71.085 31.5382ZM96.5256 31.0081H91.8497L89.5401 26.6919H85.1861V31.0081H80.4345V15.1063H89.2751C93.6481 15.1063 96.0523 17.0372 96.0523 21.0505C96.0523 23.2276 95.049 24.7799 93.6103 25.7075L96.5256 31.0081ZM85.1861 19.0628V23.114H88.9722C90.4867 23.114 91.3007 22.3946 91.3007 21.0884C91.3007 19.7822 90.4867 19.0628 88.9722 19.0628H85.1861ZM97.6718 31.0081V15.1063H111.681V18.9303H102.423V21.4481H111.34V24.6474H102.423V27.1652H111.681V31.0081H97.6718ZM120.874 15.1063C127.235 15.1063 129.544 18.4949 129.544 23.0572C129.544 27.6006 127.235 31.0081 120.874 31.0081H113.112V15.1063H120.874ZM120.855 27.0137C123.259 27.0137 124.774 25.7643 124.774 23.0572C124.774 20.3312 123.259 19.1007 120.855 19.1007H117.883V27.0137H120.855ZM130.771 31.0081V15.1063H136.772L139.82 24.8746H140.161L143.209 15.1063H149.228V31.0081H144.685V23.114H144.306L141.789 31.0081H138.211L135.693 23.114H135.295V31.0081H130.771ZM163.729 31.0081L162.934 28.7175H155.779L154.983 31.0081H150.08L156.025 15.1063H162.688L168.651 31.0081H163.729ZM157.009 25.1774H161.704L159.773 19.5739H158.94L157.009 25.1774ZM182.531 15.1063V19.0817H176.738V31.0081H171.986V19.0817H166.194V15.1063H182.531ZM183.881 31.0081V15.1063H197.889V18.9303H188.632V21.4481H197.549V24.6474H188.632V27.1652H197.889V31.0081H183.881Z" fill="#1B1B1B"/>
<defs>
<linearGradient id="paint0_linear_840_10200" x1="45.4338" y1="5.24236" x2="13.1059" y2="36.114" gradientUnits="userSpaceOnUse">
<stop stop-color="#CE0061"/>
<stop offset="1" stop-color="#680031"/>
</linearGradient>
<clipPath id="clip0_840_10200">
<rect x="5.82422" y="5.82422" width="33.7841" height="34.3666" rx="16.892" fill="white"/>
</clipPath>
</defs>
</svg>
