<svg width="24" height="24" viewBox="0 0 24 24" fill="none" xmlns="http://www.w3.org/2000/svg">
<path d="M12.0015 6.75029C12.2004 6.75029 12.3912 6.82931 12.5318 6.96996C12.6725 7.11061 12.7515 7.30138 12.7515 7.50029V12.7503C12.7515 12.9492 12.6725 13.14 12.5318 13.2806C12.3912 13.4213 12.2004 13.5003 12.0015 13.5003C11.8026 13.5003 11.6118 13.4213 11.4712 13.2806C11.3305 13.14 11.2515 12.9492 11.2515 12.7503V7.50029C11.2515 7.30138 11.3305 7.11061 11.4712 6.96996C11.6118 6.82931 11.8026 6.75029 12.0015 6.75029ZM10.8765 16.1253C10.8765 16.3478 10.9425 16.5653 11.0661 16.7503C11.1897 16.9353 11.3654 17.0795 11.571 17.1647C11.7765 17.2498 12.0027 17.2721 12.221 17.2287C12.4392 17.1853 12.6397 17.0781 12.797 16.9208C12.9543 16.7635 13.0615 16.563 13.1049 16.3448C13.1483 16.1265 13.126 15.9003 13.0409 15.6948C12.9557 15.4892 12.8115 15.3135 12.6265 15.1899C12.4415 15.0663 12.224 15.0003 12.0015 15.0003C11.7031 15.0003 11.417 15.1188 11.206 15.3298C10.995 15.5408 10.8765 15.8269 10.8765 16.1253ZM22.5015 12.0003C22.5021 12.1967 22.4636 12.3914 22.3885 12.5729C22.3133 12.7544 22.2029 12.9192 22.0637 13.0578L13.059 22.0634C12.778 22.3428 12.3978 22.4996 12.0015 22.4996C11.6052 22.4996 11.225 22.3428 10.944 22.0634L1.944 13.0578C1.66463 12.7767 1.50781 12.3966 1.50781 12.0003C1.50781 11.604 1.66463 11.2238 1.944 10.9428L10.9487 1.93717C11.2297 1.65779 11.6099 1.50098 12.0062 1.50098C12.4025 1.50098 12.7826 1.65779 13.0637 1.93717L22.0684 10.9428C22.2068 11.0818 22.3163 11.2467 22.3907 11.4282C22.465 11.6097 22.5027 11.8042 22.5015 12.0003ZM21.0015 12.0003L12.0015 3.00029L3.0015 12.0003L12.0015 21.0003L21.0015 12.0003Z" fill="#B0B0B0"/>
</svg>
