<svg width="66" height="66" viewBox="0 0 66 66" fill="none" xmlns="http://www.w3.org/2000/svg">
<g filter="url(#filter0_d_840_10239)">
<rect x="5" y="4" width="56" height="56" rx="12" fill="white"/>
<rect x="5.29167" y="4.29167" width="55.4167" height="55.4167" rx="11.7083" stroke="#E7E7E7" stroke-width="0.583333"/>
<path d="M31.9779 42.412C31.9779 42.6827 31.8703 42.9424 31.6789 43.1338C31.4874 43.3253 31.2278 43.4328 30.957 43.4328H22.7904C22.5196 43.4328 22.26 43.3253 22.0685 43.1338C21.8771 42.9424 21.7695 42.6827 21.7695 42.412V19.9536C21.7695 19.6829 21.8771 19.4232 22.0685 19.2318C22.26 19.0404 22.5196 18.9328 22.7904 18.9328H30.957C31.2278 18.9328 31.4874 19.0404 31.6789 19.2318C31.8703 19.4232 31.9779 19.6829 31.9779 19.9536C31.9779 20.2244 31.8703 20.484 31.6789 20.6755C31.4874 20.8669 31.2278 20.9745 30.957 20.9745H23.8112V41.3911H30.957C31.2278 41.3911 31.4874 41.4987 31.6789 41.6901C31.8703 41.8816 31.9779 42.1412 31.9779 42.412ZM45.9709 30.4606L40.8668 25.3564C40.6752 25.1648 40.4154 25.0572 40.1445 25.0572C39.8736 25.0572 39.6138 25.1648 39.4223 25.3564C39.2307 25.5479 39.1231 25.8077 39.1231 26.0786C39.1231 26.3495 39.2307 26.6093 39.4223 26.8009L42.7847 30.162H30.957C30.6863 30.162 30.4266 30.2695 30.2352 30.461C30.0438 30.6524 29.9362 30.9121 29.9362 31.1828C29.9362 31.4535 30.0438 31.7132 30.2352 31.9046C30.4266 32.0961 30.6863 32.2036 30.957 32.2036H42.7847L39.4223 35.5647C39.2307 35.7563 39.1231 36.0161 39.1231 36.287C39.1231 36.5579 39.2307 36.8177 39.4223 37.0092C39.6138 37.2008 39.8736 37.3084 40.1445 37.3084C40.4154 37.3084 40.6752 37.2008 40.8668 37.0092L45.9709 31.905C46.0659 31.8102 46.1411 31.6976 46.1925 31.5737C46.2439 31.4498 46.2703 31.317 46.2703 31.1828C46.2703 31.0486 46.2439 30.9158 46.1925 30.7919C46.1411 30.668 46.0659 30.5554 45.9709 30.4606Z" fill="#A2195E"/>
</g>
<defs>
<filter id="filter0_d_840_10239" x="0.833333" y="0.833333" width="64.3333" height="64.3333" filterUnits="userSpaceOnUse" color-interpolation-filters="sRGB">
<feFlood flood-opacity="0" result="BackgroundImageFix"/>
<feColorMatrix in="SourceAlpha" type="matrix" values="0 0 0 0 0 0 0 0 0 0 0 0 0 0 0 0 0 0 127 0" result="hardAlpha"/>
<feMorphology radius="0.5" operator="erode" in="SourceAlpha" result="effect1_dropShadow_840_10239"/>
<feOffset dy="1"/>
<feGaussianBlur stdDeviation="2.33333"/>
<feComposite in2="hardAlpha" operator="out"/>
<feColorMatrix type="matrix" values="0 0 0 0 0 0 0 0 0 0 0 0 0 0 0 0 0 0 0.07 0"/>
<feBlend mode="normal" in2="BackgroundImageFix" result="effect1_dropShadow_840_10239"/>
<feBlend mode="normal" in="SourceGraphic" in2="effect1_dropShadow_840_10239" result="shape"/>
</filter>
</defs>
</svg>
