<svg width="46" height="47" viewBox="0 0 46 47" fill="none" xmlns="http://www.w3.org/2000/svg">
<rect width="45.4338" height="46.0163" rx="8.15478" fill="url(#paint0_linear_4118_16233)"/>
<g clip-path="url(#clip0_4118_16233)">
<path d="M11.2832 35.24C11.6715 34.5604 12.5647 33.143 13.0307 32.91C13.495 32.6779 17.2907 33.1859 20.5817 32.9591C22.1546 32.8507 23.6349 32.218 24.8563 31.221C25.7383 30.501 26.7058 29.6009 27.49 28.6229C27.9709 28.0233 28.0404 27.1031 27.2733 27.1509C26.542 27.1964 25.2853 27.6202 23.2241 28.8326C22.1562 29.221 19.3797 29.8229 16.8168 29.1239C16.1187 28.9494 15.9697 28.4768 19.3309 27.0293C20.1097 26.6939 20.5469 25.8265 19.7293 25.6014C18.7554 25.3333 16.8355 25.4216 13.3219 26.5027C5.7496 28.8326 7.78829 33.2013 11.2832 35.24Z" fill="white"/>
<path d="M32.2529 13.3971C31.7869 12.6981 26.6222 13.1058 24.0981 13.3971L25.8453 17.4742C27.0772 17.2278 28.0378 17.1877 28.727 17.2333C29.5189 17.2857 30.1599 17.8551 30.3305 18.6303C30.7635 20.5982 29.1713 20.8439 28.1752 20.6779C27.8925 20.593 27.4879 20.4884 27.0103 20.3885C26.4129 20.2636 25.7014 20.146 24.9716 20.0836C24.2816 20.0247 23.5751 20.0151 22.9332 20.0954C21.866 20.2288 21.3487 20.7287 21.1854 21.2315C20.9922 21.8265 21.2947 22.4253 21.7682 22.4253C22.5519 22.4253 24.7417 22.4253 26.866 23.4763C27.11 23.597 27.353 23.7315 27.593 23.8815C27.7802 23.9985 27.975 24.108 28.1752 24.2101C30.4677 25.3789 33.4881 25.5822 34.2916 25.0465C34.9906 24.5805 37.8836 24.6582 39.2427 24.7552C39.534 22.7165 39.8835 18.5809 38.9515 18.3479C37.7865 18.0567 32.8354 14.2708 32.2529 13.3971Z" fill="white"/>
<path d="M21.1854 21.2315C21.3487 20.7287 21.866 20.2288 22.9332 20.0954C23.5751 20.0151 24.2816 20.0247 24.9716 20.0836C25.2628 15.1443 18.273 17.1829 21.1854 21.2315Z" fill="#589B63"/>
<path d="M15.9431 13.688L16.9841 16.018C17.5108 15.6634 18.506 14.4782 18.273 12.5737L15.9431 13.688Z" fill="#589B63"/>
<path d="M23.6864 12.5737L22.6416 10.4844L20.6029 11.4594C21.5349 12.7054 23.0469 12.7215 23.6864 12.5737Z" fill="#589B63"/>
<path d="M21.4085 25.9202L22.0592 27.3764L24.0979 26.321C23.1659 25.7096 21.9166 25.7991 21.4085 25.9202Z" fill="#589B63"/>
<path d="M28.1752 24.2101C27.975 24.108 27.7802 23.9985 27.593 23.8815C27.353 23.7315 27.11 23.597 26.866 23.4763C26.817 23.7471 26.7773 24.3936 27.0103 24.8132L28.1752 24.2101Z" fill="#589B63"/>
<path d="M25.8453 17.4742L24.0981 13.3971L23.6864 12.5737C23.0469 12.7215 21.5349 12.7054 20.6029 11.4594L18.273 12.5737C18.506 14.4782 17.5108 15.6634 16.9841 16.018L21.4085 25.9202C21.9166 25.7991 23.1659 25.7096 24.0979 26.321L27.0103 24.8132C26.7773 24.3936 26.817 23.7471 26.866 23.4763C24.7417 22.4253 22.5519 22.4253 21.7682 22.4253C21.2947 22.4253 20.9922 21.8265 21.1854 21.2315C18.273 17.1829 25.2628 15.1443 24.9716 20.0836C25.7014 20.146 26.4129 20.2636 27.0103 20.3885L25.8453 17.4742Z" fill="#B6D48A"/>
</g>
<rect x="6.22422" y="6.22422" width="32.9841" height="33.5666" rx="16.4921" stroke="#CBCBCB" stroke-width="0.8"/>
<defs>
<linearGradient id="paint0_linear_4118_16233" x1="45.4338" y1="5.24236" x2="13.1059" y2="36.114" gradientUnits="userSpaceOnUse">
<stop stop-color="#CE0061"/>
<stop offset="1" stop-color="#680031"/>
</linearGradient>
<clipPath id="clip0_4118_16233">
<rect x="5.82422" y="5.82422" width="33.7841" height="34.3666" rx="16.892" fill="white"/>
</clipPath>
</defs>
</svg>
