<svg width="22" height="22" viewBox="0 0 22 22" fill="none" xmlns="http://www.w3.org/2000/svg">
<path d="M19.8455 18.2182C18.5367 15.9554 16.5197 14.3329 14.1659 13.5638C15.3302 12.8707 16.2348 11.8145 16.7408 10.5575C17.2467 9.30052 17.3261 7.91219 16.9666 6.60573C16.6072 5.29927 15.8288 4.14692 14.7511 3.32564C13.6734 2.50436 12.3558 2.05957 11.0008 2.05957C9.64581 2.05957 8.32827 2.50436 7.25052 3.32564C6.17278 4.14692 5.39442 5.29927 5.03498 6.60573C4.67554 7.91219 4.7549 9.30052 5.26086 10.5575C5.76683 11.8145 6.67142 12.8707 7.83573 13.5638C5.48191 14.3321 3.46495 15.9546 2.15613 18.2182C2.10813 18.2964 2.07629 18.3835 2.0625 18.4743C2.0487 18.565 2.05322 18.6576 2.07579 18.7466C2.09837 18.8356 2.13854 18.9192 2.19393 18.9924C2.24932 19.0656 2.31882 19.127 2.39832 19.1729C2.47782 19.2188 2.56571 19.2484 2.6568 19.2598C2.7479 19.2712 2.84036 19.2642 2.92872 19.2393C3.01709 19.2144 3.09956 19.172 3.17129 19.1147C3.24302 19.0574 3.30255 18.9863 3.34636 18.9057C4.96542 16.1075 7.82714 14.4369 11.0008 14.4369C14.1745 14.4369 17.0362 16.1075 18.6553 18.9057C18.6991 18.9863 18.7586 19.0574 18.8303 19.1147C18.9021 19.172 18.9845 19.2144 19.0729 19.2393C19.1613 19.2642 19.2537 19.2712 19.3448 19.2598C19.4359 19.2484 19.5238 19.2188 19.6033 19.1729C19.6828 19.127 19.7523 19.0656 19.8077 18.9924C19.8631 18.9192 19.9033 18.8356 19.9258 18.7466C19.9484 18.6576 19.9529 18.565 19.9391 18.4743C19.9253 18.3835 19.8935 18.2964 19.8455 18.2182ZM6.18831 8.24941C6.18831 7.29759 6.47056 6.36714 6.99936 5.57573C7.52817 4.78432 8.27978 4.16748 9.15915 3.80324C10.0385 3.43899 11.0062 3.34369 11.9397 3.52938C12.8732 3.71507 13.7307 4.17342 14.4038 4.84646C15.0768 5.5195 15.5352 6.377 15.7208 7.31054C15.9065 8.24407 15.8112 9.2117 15.447 10.0911C15.0827 10.9704 14.4659 11.7221 13.6745 12.2509C12.8831 12.7797 11.9526 13.0619 11.0008 13.0619C9.72488 13.0605 8.50159 12.5531 7.59937 11.6509C6.69715 10.7486 6.18968 9.52534 6.18831 8.24941Z" fill="#B0B0B0"/>
</svg>
